<?xml version="1.0" encoding="UTF-8"?>
<svg xmlns="http://www.w3.org/2000/svg" xmlns:xlink="http://www.w3.org/1999/xlink" width="550px" height="550px" viewBox="0 0 550 550" version="1.1">
<g id="surface1">
<path style=" stroke:none;fill-rule:nonzero;fill:rgb(49.411765%,85.098039%,34.117647%);fill-opacity:1;" d="M 424.050781 93.226562 C 459.523438 127.050781 473.550781 182.324219 483.726562 238.425781 C 493.625 294.25 499.675781 351.175781 474.925781 387.199219 C 450.449219 423.226562 395.175781 438.625 345.675781 447.425781 C 295.898438 456.226562 251.625 458.425781 208.175781 447.425781 C 164.726562 436.425781 121.824219 412.226562 88.273438 373.449219 C 54.449219 334.675781 30.25 281.050781 40.148438 234.851562 C 49.773438 188.925781 93.773438 150.148438 138.601562 117.699219 C 183.425781 85.523438 229.074219 59.675781 280.5 53.074219 C 331.648438 46.476562 388.574219 59.398438 424.050781 93.226562 Z M 424.050781 93.226562 "/>
</g>
</svg>
